<svg width="100" height="100" fill="none" xmlns="http://www.w3.org/2000/svg"><path d="M50 5C25.147 5 5 25.147 5 50s20.147 45 45 45 45-20.147 45-45S74.853 5 50 5zm20.858 30.604c-.677 7.115-3.607 24.383-5.099 32.353-.63 3.372-1.873 4.502-3.075 4.613-2.613.24-4.597-1.727-7.128-3.386-3.961-2.596-6.198-4.213-10.043-6.746-4.443-2.928-1.563-4.536.97-7.167.662-.689 12.176-11.162 12.399-12.111.028-.12.054-.563-.21-.796-.264-.233-.651-.154-.931-.09-.398.09-6.725 4.271-18.982 12.545-1.795 1.233-3.422 1.834-4.88 1.803-1.606-.035-4.697-.909-6.995-1.656-2.818-.916-5.058-1.4-4.863-2.956.102-.81 1.218-1.639 3.348-2.486 13.118-5.715 21.866-9.483 26.243-11.304 12.497-5.198 15.094-6.101 16.786-6.131.373-.006 1.205.086 1.744.523.359.312.587.747.64 1.219.092.586.117 1.18.076 1.773z" fill="#333"/></svg>