<svg width="100" height="100" fill="none" xmlns="http://www.w3.org/2000/svg"><path d="M49.532 29.617c-11.5 0-20.775 9.218-20.775 20.646 0 11.429 9.275 20.647 20.775 20.647 11.499 0 20.774-9.218 20.774-20.646 0-11.429-9.275-20.647-20.774-20.647zm0 34.07c-7.431 0-13.506-6.02-13.506-13.423 0-7.404 6.056-13.423 13.506-13.423 7.449 0 13.506 6.02 13.506 13.422 0 7.404-6.075 13.423-13.506 13.423zm26.47-34.914c0 2.677-2.17 4.816-4.846 4.816-2.694 0-4.846-2.157-4.846-4.816 0-2.66 2.17-4.816 4.846-4.816S76 26.113 76 28.773zM89.76 33.66c-.307-6.45-1.79-12.164-6.545-16.872-4.737-4.708-10.486-6.182-16.977-6.505-6.69-.377-26.741-.377-33.43 0-6.474.306-12.223 1.779-16.978 6.487-4.755 4.707-6.22 10.422-6.545 16.872-.38 6.649-.38 26.576 0 33.225.307 6.45 1.79 12.164 6.545 16.872s10.487 6.181 16.977 6.505c6.69.377 26.741.377 33.43 0 6.492-.305 12.241-1.779 16.978-6.505 4.737-4.708 6.22-10.422 6.545-16.872.38-6.649.38-26.558 0-33.207zM81.118 74c-1.41 3.522-4.14 6.235-7.702 7.655-5.334 2.102-17.99 1.617-23.884 1.617-5.895 0-18.569.467-23.884-1.617-3.544-1.402-6.274-4.115-7.703-7.655-2.115-5.3-1.627-17.879-1.627-23.736 0-5.858-.47-18.454 1.627-23.737 1.41-3.522 4.14-6.235 7.703-7.655 5.333-2.102 17.99-1.617 23.884-1.617 5.894 0 18.568-.467 23.884 1.617 3.544 1.402 6.274 4.115 7.702 7.655 2.115 5.3 1.627 17.879 1.627 23.736 0 5.858.488 18.454-1.627 23.737z" fill="#333"/></svg>