<svg width="60" height="41" fill="none" xmlns="http://www.w3.org/2000/svg"><path d="M0 20.986c0-11.046 8.954-20 20-20h20c11.046 0 20 8.954 20 20s-8.954 20-20 20H20c-11.046 0-20-8.954-20-20z" fill="#EF1019"/><path d="M29.077 19.515v2.092c0 1.002-.1 1.857-.299 2.566-.193.704-.474 1.275-.843 1.714-.37.44-.812.762-1.328.967a4.555 4.555 0 01-1.713.308c-.504 0-.973-.065-1.407-.194a3.437 3.437 0 01-1.16-.606 3.625 3.625 0 01-.888-1.064c-.24-.44-.427-.963-.562-1.573-.129-.61-.193-1.315-.193-2.118v-2.092c0-1.008.1-1.857.298-2.549.2-.697.484-1.262.853-1.696a3.25 3.25 0 011.318-.958c.516-.2 1.09-.299 1.723-.299.51 0 .979.065 1.406.194.434.123.82.319 1.16.588.346.27.64.621.88 1.055.245.428.433.946.562 1.556.129.603.193 1.306.193 2.11zm-2.118 2.39V19.2c0-.51-.03-.958-.088-1.345a3.985 3.985 0 00-.264-.993 1.977 1.977 0 00-.421-.668 1.485 1.485 0 00-.58-.378 2.05 2.05 0 00-.73-.123c-.328 0-.621.064-.879.193a1.58 1.58 0 00-.65.598c-.176.275-.31.639-.405 1.09-.087.445-.131.987-.131 1.626v2.707c0 .515.029.97.087 1.362.059.393.147.73.264 1.01.117.276.258.505.422.686.17.176.363.305.58.387.223.082.466.123.73.123.334 0 .63-.064.887-.193a1.63 1.63 0 00.65-.615c.176-.288.308-.66.396-1.117a8.835 8.835 0 00.132-1.643zm12.586 3.393v1.688h-8.578v-1.45l4.166-4.544a15.66 15.66 0 001.08-1.336c.264-.375.45-.712.555-1.011.11-.305.167-.6.167-.888a2.35 2.35 0 00-.229-1.063 1.672 1.672 0 00-.65-.73c-.287-.181-.636-.272-1.046-.272-.475 0-.873.102-1.195.307-.323.206-.566.49-.73.853a2.919 2.919 0 00-.246 1.23H30.72c0-.744.17-1.423.51-2.038a3.728 3.728 0 011.476-1.477c.645-.37 1.42-.554 2.33-.554.855 0 1.581.144 2.179.43.597.288 1.052.695 1.362 1.223.316.527.475 1.15.475 1.872 0 .398-.065.793-.194 1.186a5.62 5.62 0 01-.553 1.178c-.235.387-.513.776-.835 1.169-.323.386-.677.78-1.064 1.177l-2.768 3.05h5.906z" fill="#fff"/></svg>