<svg width="60" height="41" fill="none" xmlns="http://www.w3.org/2000/svg"><path d="M0 20.986c0-11.046 8.954-20 20-20h20c11.046 0 20 8.954 20 20s-8.954 20-20 20H20c-11.046 0-20-8.954-20-20z" fill="#EF1019"/><path d="M29.077 19.515v2.092c0 1.002-.1 1.857-.299 2.566-.193.704-.474 1.275-.843 1.714-.37.44-.812.762-1.328.967a4.555 4.555 0 01-1.713.308c-.504 0-.973-.065-1.407-.194a3.437 3.437 0 01-1.16-.606 3.625 3.625 0 01-.888-1.064c-.24-.44-.427-.963-.562-1.573-.129-.61-.193-1.315-.193-2.118v-2.092c0-1.008.1-1.857.298-2.549.2-.697.484-1.262.853-1.696a3.25 3.25 0 011.318-.958c.516-.2 1.09-.299 1.723-.299.51 0 .979.065 1.406.194.434.123.82.319 1.16.588.346.27.64.621.88 1.055.245.428.433.946.562 1.556.129.603.193 1.306.193 2.11zm-2.118 2.39V19.2c0-.51-.03-.958-.088-1.345a3.985 3.985 0 00-.264-.993 1.977 1.977 0 00-.421-.668 1.485 1.485 0 00-.58-.378 2.05 2.05 0 00-.73-.123c-.328 0-.621.064-.879.193a1.58 1.58 0 00-.65.598c-.176.275-.31.639-.405 1.09-.087.445-.131.987-.131 1.626v2.707c0 .515.029.97.087 1.362.059.393.147.73.264 1.01.117.276.258.505.422.686.17.176.363.305.58.387.223.082.466.123.73.123.334 0 .63-.064.887-.193a1.63 1.63 0 00.65-.615c.176-.288.308-.66.396-1.117a8.835 8.835 0 00.132-1.643zm9.791-7.76v12.84h-2.118V16.66l-3.138 1.063v-1.749l5.001-1.828h.255z" fill="#fff"/></svg>