<svg width="60" height="41" fill="none" xmlns="http://www.w3.org/2000/svg"><path d="M0 20.986c0-11.046 8.954-20 20-20h20c11.046 0 20 8.954 20 20s-8.954 20-20 20H20c-11.046 0-20-8.954-20-20z" fill="#EF1019"/><path d="M29.077 19.515v2.092c0 1.002-.1 1.857-.299 2.566-.193.704-.474 1.275-.843 1.714-.37.44-.812.762-1.328.967a4.555 4.555 0 01-1.713.308c-.504 0-.973-.065-1.407-.194a3.437 3.437 0 01-1.16-.606 3.625 3.625 0 01-.888-1.064c-.24-.44-.427-.963-.562-1.573-.129-.61-.193-1.315-.193-2.118v-2.092c0-1.008.1-1.857.298-2.549.2-.697.484-1.262.853-1.696a3.25 3.25 0 011.318-.958c.516-.2 1.09-.299 1.723-.299.51 0 .979.065 1.406.194.434.123.82.319 1.16.588.346.27.64.621.88 1.055.245.428.433.946.562 1.556.129.603.193 1.306.193 2.11zm-2.118 2.39V19.2c0-.51-.03-.958-.088-1.345a3.985 3.985 0 00-.264-.993 1.977 1.977 0 00-.421-.668 1.485 1.485 0 00-.58-.378 2.05 2.05 0 00-.73-.123c-.328 0-.621.064-.879.193a1.58 1.58 0 00-.65.598c-.176.275-.31.639-.405 1.09-.087.445-.131.987-.131 1.626v2.707c0 .515.029.97.087 1.362.059.393.147.73.264 1.01.117.276.258.505.422.686.17.176.363.305.58.387.223.082.466.123.73.123.334 0 .63-.064.887-.193a1.63 1.63 0 00.65-.615c.176-.288.308-.66.396-1.117a8.835 8.835 0 00.132-1.643zm6.495-2.276h1.266c.492 0 .9-.085 1.221-.255.328-.17.572-.404.73-.703.158-.298.237-.641.237-1.028 0-.404-.073-.75-.22-1.037a1.483 1.483 0 00-.65-.677c-.287-.158-.653-.237-1.098-.237-.375 0-.715.076-1.02.228a1.732 1.732 0 00-.712.633c-.176.27-.264.592-.264.967h-2.127c0-.68.18-1.283.537-1.81a3.634 3.634 0 011.459-1.24c.62-.305 1.318-.457 2.091-.457.826 0 1.547.138 2.162.413.621.27 1.105.674 1.45 1.213.346.54.52 1.207.52 2.004 0 .363-.086.732-.256 1.107s-.422.718-.756 1.029a3.95 3.95 0 01-1.248.747c-.498.187-1.075.281-1.731.281h-1.59V19.63zm0 1.653v-1.16h1.59c.75 0 1.39.087 1.917.263.533.176.967.42 1.3.73.335.304.578.653.73 1.046.158.392.237.808.237 1.248 0 .597-.108 1.13-.325 1.6-.21.462-.512.855-.905 1.177a4.037 4.037 0 01-1.38.73 5.655 5.655 0 01-1.705.246c-.55 0-1.078-.077-1.582-.229a4.314 4.314 0 01-1.354-.677 3.357 3.357 0 01-.949-1.133c-.228-.457-.342-.985-.342-1.582h2.118c0 .38.088.717.263 1.01.182.287.434.513.756.677.328.164.703.246 1.125.246.446 0 .83-.079 1.152-.237.322-.158.568-.393.738-.703.176-.31.264-.686.264-1.125 0-.498-.097-.903-.29-1.213a1.705 1.705 0 00-.827-.686c-.357-.152-.779-.228-1.265-.228h-1.266z" fill="#fff"/></svg>