<svg width="1345" height="240" fill="none" xmlns="http://www.w3.org/2000/svg"><path d="M962.137 49.816c1.569 2.911 2.376 6.032 2.376 9.184h-11.255c0-1.839-.529-3.659-1.558-5.358-1.028-1.698-2.535-3.242-4.436-4.542-1.9-1.3-4.156-2.33-6.638-3.034A28.863 28.863 0 00932.795 45c-2.688 0-5.349.362-7.831 1.066-2.483.703-4.739 1.734-6.639 3.034-1.9 1.3-3.408 2.844-4.436 4.542-1.029 1.699-1.558 3.52-1.558 5.358h-10.232c0-3.152.808-6.273 2.376-9.184 1.568-2.912 3.867-5.558 6.765-7.787 2.897-2.228 6.338-3.996 10.124-5.202C925.15 35.62 929.208 35 933.306 35s8.156.62 11.942 1.827c3.787 1.206 7.227 2.974 10.125 5.202 2.897 2.229 5.196 4.875 6.764 7.787zm-98.04 130.43c0 11.046-9.18 20-20.505 20-11.324 0-20.505-8.954-20.505-20 0-11.045 9.181-20 20.505-20 11.325 0 20.505 8.955 20.505 20z" fill="#242323"/><path fill-rule="evenodd" clip-rule="evenodd" d="M1279.1 201c-13.16 0-24.61-2.301-34.37-6.904-9.9-4.534-17.59-11.197-23.08-19.99-5.5-8.793-8.24-19.234-8.24-31.325 0-12.021 2.74-22.222 8.24-30.603 5.49-8.449 13.18-14.803 23.08-19.063 9.9-4.327 21.36-6.491 34.37-6.491 13.36 0 24.96 2.198 34.79 6.595 9.9 4.396 17.56 10.784 22.98 19.165 5.42 8.312 8.13 18.445 8.13 30.397 0 12.091-2.71 22.532-8.13 31.325-5.49 8.793-13.22 15.491-23.2 20.093-9.9 4.534-21.42 6.801-34.57 6.801zm0-30.088c4.77 0 8.31-2.233 10.62-6.698 2.24-4.328 3.36-11.472 3.36-21.433 0-9.136-1.12-15.731-3.36-19.784-2.17-4.121-5.71-6.182-10.62-6.182-4.7 0-8.17 2.061-10.41 6.182-2.24 4.053-3.36 10.648-3.36 19.784 0 9.755 1.16 16.899 3.47 21.433 2.31 4.465 5.74 6.698 10.3 6.698z" fill="#242323"/><path d="M1179.16 196.162c0 1.648-1.38 2.983-3.08 2.983h-77.1c-1.69 0-3.07-1.335-3.07-2.983v-25.049c0-1.648 1.38-2.983 3.07-2.983h7.84c1.69 0 3.07-1.336 3.07-2.983V123.61c0-1.647-1.38-2.982-3.07-2.982h-7.84c-1.69 0-3.07-1.336-3.07-2.983v-22.13c0-1.537 1.2-2.822 2.78-2.97l59.75-5.605c1.81-.17 3.37 1.208 3.37 2.97v4.618c0 2.967 4.69 4.625 7.15 2.853a41.11 41.11 0 013.04-1.999 60.205 60.205 0 0114.31-6.388c3.87-1.193 7.44-1.936 10.7-2.228 1.69-.152 3.07 1.193 3.07 2.84v36.595c0 2.028-2.05 3.463-4.06 2.899-6.65-1.87-12.28-2.805-16.86-2.805-6.94 0-11.57 1.923-13.88 5.77-2.31 3.778-3.47 8.759-3.47 14.941v18.141c0 1.647 1.38 2.983 3.08 2.983h11.19c1.7 0 3.08 1.335 3.08 2.983v25.049zM902.099 59v138c0 1.105.914 2 2.047 2h6.149c1.133 0 2.051-.895 2.051-2V59h-10.247z" fill="#242323"/><path fill-rule="evenodd" clip-rule="evenodd" d="M953.258 59l-.024 137.363c0 1.653 1.372 2.995 3.068 3l54.178.137c21.03 0 37.25-3.778 48.67-11.335 11.49-7.625 17.23-18.41 17.23-32.355 0-11.403-2.42-20.368-7.26-26.893-3.57-4.889-8.62-9.103-15.16-12.643-2.44-1.323-2.36-5.164.06-6.518 4.56-2.541 8.5-5.84 11.85-9.897 4.99-6.045 7.48-13.155 7.48-21.33 0-11.61-2.93-20.574-8.78-26.894-5.85-6.388-13.73-10.716-23.63-12.983-10.12-2.198-22.22-3.652-36.52-3.652h-69.579l18.417 6.5V59zm36.411 15.814v23.814c0 1.647 1.377 2.982 3.076 2.982h2.886c8.239 0 14.309-1.099 18.209-3.297 3.98-2.198 5.96-6.32 5.96-12.365 0-4.19-1.37-7.59-4.12-10.201-2.74-2.61-6.32-3.915-10.73-3.915h-12.205c-1.699 0-3.076 1.335-3.076 2.982zm0 56.646v28.786c0 1.648 1.377 2.983 3.076 2.983h.826c8.749 0 15.469-1.167 20.159-3.503 4.77-2.336 7.16-7.144 7.16-14.426 0-11.266-7.23-16.899-21.682-16.899-1.59 0-3.18.035-4.77.103-.609 0-1.219.005-1.829.015-1.645.028-2.94 1.346-2.94 2.941z" fill="#242323"/><path d="M929.861 59h6.515c1.135 0 1.608.89 1.601 2v136c0 1.105-.918 2-2.051 2h-6.061c-1.132 0-2.05-.895-2.05-2V61c0-1.105.916-2 2.046-2zM42.905 200c-7.467 0-12.8-1.467-16-4.4-3.2-2.933-4.8-7.133-4.8-12.6 0-2.667.2-7.2.6-13.6.4-6.533.933-13.933 1.6-22.2.666-8.267 1.333-17 2-26.2.666-9.2 1.333-17.867 2-26 .666-8.133 1.2-15.267 1.6-21.4.4-6.133.6-10.333.6-12.6 0-2 1.066-3 3.2-3h70.4c.8 0 1.533.2 2.2.6.666.4 1 1.133 1 2.2l-.8 11.8c-.267 4-1.4 7.267-3.4 9.8-1.867 2.4-5.8 3.6-11.8 3.6h-27.6l-2 28.2h28.4c.8 0 1.533.2 2.2.6.666.4 1 1.133 1 2.2l-.8 11.8c-.267 4-1.4 7.267-3.4 9.8-1.867 2.4-5.8 3.6-11.8 3.6h-17.4l-2.2 29.8h44c.8 0 1.533.267 2.2.8.666.4 1 1.067 1 2l-.8 11.8c-.267 4-1.4 7.267-3.4 9.8-1.867 2.4-5.8 3.6-11.8 3.6h-46zM208.5 182.4c0-2.933.2-6.733.6-11.4.533-4.8 1-9.8 1.4-15 .533-5.333 1-10.467 1.4-15.4.533-4.933.8-9.067.8-12.4 0-3.467-.867-6.533-2.6-9.2-1.6-2.8-4.8-4.2-9.6-4.2-4.667 0-8.533 1.133-11.6 3.4s-5.667 6.4-7.8 12.4c-2 6-3.667 14.267-5 24.8-1.333 10.533-2.6 24.067-3.8 40.6-.133 1.6-.467 2.667-1 3.2-.533.533-1.667.8-3.4.8h-7.2c-4.133 0-7.533-.4-10.2-1.2-2.533-.933-4.6-2.2-6.2-3.8-1.467-1.6-2.533-3.533-3.2-5.8-.533-2.4-.8-5.133-.8-8.2 0-2 .067-4.8.2-8.4.267-3.733.667-8.8 1.2-15.2.533-6.533 1.133-14.733 1.8-24.6.8-10 1.733-22.333 2.8-37 .133-2.933.467-4.667 1-5.2.4-.4 1.467-.6 3.2-.6h7.8c4 0 7.267.467 9.8 1.4 2.667.933 4.8 2.2 6.4 3.8 1.6 1.467 2.733 3.267 3.4 5.4.667 2 1.067 4.067 1.2 6.2 4.133-7.067 8.867-11.933 14.2-14.6 5.333-2.8 12-4.2 20-4.2 5.6 0 10.467.6 14.6 1.8 4.133 1.2 7.533 3.267 10.2 6.2 2.8 2.8 4.867 6.533 6.2 11.2 1.333 4.533 2 10.2 2 17 0 2.133-.133 5.2-.4 9.2-.267 4-.6 8.4-1 13.2-.4 4.667-.867 9.6-1.4 14.8-.4 5.067-.8 9.8-1.2 14.2-.4 4.4-.733 8.267-1 11.6s-.4 5.533-.4 6.6c0 2.933-.333 4.733-1 5.4-.667.533-2.133.8-4.4.8h-6.4c-4.267 0-7.733-.4-10.4-1.2-2.667-.8-4.733-1.933-6.2-3.4-1.467-1.467-2.533-3.267-3.2-5.4-.533-2.267-.8-4.8-.8-7.6zm141.028-6c-3.333 6-7.4 10.467-12.2 13.4-4.8 2.8-10.8 4.2-18 4.2-5.467 0-10.467-.867-15-2.6-4.533-1.733-8.4-4.467-11.6-8.2-3.2-3.733-5.733-8.4-7.6-14-1.733-5.733-2.6-12.533-2.6-20.4 0-6.4.667-13.133 2-20.2 1.333-7.2 3.733-13.8 7.2-19.8 3.6-6 8.467-10.933 14.6-14.8 6.133-4 14-6 23.6-6 4 0 7.4.467 10.2 1.4 2.933.8 5.4 1.933 7.4 3.4 2.133 1.467 3.8 3.2 5 5.2 1.333 2 2.333 4.133 3 6.4V103c.133-1.2.267-2.533.4-4s.2-2.867.2-4.2c.133-1.467.2-2.4.2-2.8.133-1.333 1-2 2.6-2h9.2c6.933 0 11.933 1.467 15 4.4 3.2 2.8 4.8 8.2 4.8 16.2 0 1.067-.067 3.533-.2 7.4-.133 3.733-.4 8.267-.8 13.6-.267 5.333-.667 11.267-1.2 17.8-.533 6.4-1.133 12.867-1.8 19.4a615.23 615.23 0 01-2.2 18.8c-.8 6-1.667 11.267-2.6 15.8-.933 4.533-2.533 8.933-4.8 13.2-2.267 4.267-5.467 8.067-9.6 11.4s-9.467 6-16 8c-6.4 2-14.267 3-23.6 3-7.067 0-13.267-.667-18.6-2-5.2-1.333-9.533-3.133-13-5.4-3.467-2.133-6.133-4.6-8-7.4-1.733-2.8-2.6-5.6-2.6-8.4 0-2.533.533-4.733 1.6-6.6a13.912 13.912 0 014.2-4.6 22.03 22.03 0 015.6-2.8c2.133-.533 4.133-.8 6-.8 2.267 0 3.933.667 5 2 1.067 1.333 2.267 2.8 3.6 4.4 1.333 1.733 3.2 3.267 5.6 4.6 2.4 1.333 6.133 2 11.2 2 8.8 0 14.933-3.267 18.4-9.8 3.6-6.4 5.4-15.667 5.4-27.8zm-16.8-9c4.8 0 8.533-1.133 11.2-3.4 2.8-2.267 4.933-5 6.4-8.2a32.9 32.9 0 002.8-10c.4-3.467.6-6.467.6-9 0-8-1.267-13.667-3.8-17-2.4-3.467-6.067-5.2-11-5.2s-8.8 1.333-11.6 4c-2.8 2.667-4.933 5.867-6.4 9.6a45.548 45.548 0 00-2.6 11c-.4 3.6-.6 6.4-.6 8.4 0 6.667 1.133 11.667 3.4 15 2.267 3.2 6.133 4.8 11.6 4.8zm116.085 34.4c-8.267 0-14.2-2.2-17.8-6.6-3.6-4.4-5.4-11.667-5.4-21.8 0-1.6.066-3.6.2-6 .266-2.4.533-5.467.8-9.2.4-3.867.866-8.6 1.4-14.2.533-5.6 1.066-12.4 1.6-20.4.666-8 1.333-17.4 2-28.2.8-10.8 1.6-23.333 2.4-37.6.133-2.933.466-4.667 1-5.2.4-.4 1.466-.6 3.2-.6h7.8c4 0 7.333.467 10 1.4 2.666.933 4.8 2.2 6.4 3.8a13.52 13.52 0 013.4 5.6c.666 2 1 4.133 1 6.4 0 2.667-.2 6.533-.6 11.6-.267 4.933-.667 10.533-1.2 16.8-.534 6.267-1.067 12.8-1.6 19.6-.534 6.8-1.067 13.333-1.6 19.6a2822.4 2822.4 0 00-1.4 16.6c-.267 4.933-.4 8.667-.4 11.2 0 3.467.6 5.933 1.8 7.4 1.333 1.467 2.733 2.533 4.2 3.2 1.466.533 2.8.933 4 1.2 1.333.133 2 .533 2 1.2 0 2.933-.334 5.867-1 8.8-.667 2.8-1.867 5.4-3.6 7.8-1.734 2.267-4.134 4.133-7.2 5.6-2.934 1.333-6.734 2-11.4 2zm77.751-1.8c-4.133 0-7.533-.4-10.2-1.2-2.533-.933-4.6-2.2-6.2-3.8-1.467-1.6-2.533-3.533-3.2-5.8-.533-2.4-.8-5.133-.8-8.2 0-2 .067-4.8.2-8.4.267-3.733.667-8.8 1.2-15.2.533-6.533 1.133-14.733 1.8-24.6.8-10 1.733-22.333 2.8-37 .133-2.933.467-4.667 1-5.2.4-.4 1.467-.6 3.2-.6h7.8c4.133 0 7.467.4 10 1.2 2.667.8 4.733 2 6.2 3.6 1.6 1.6 2.667 3.533 3.2 5.8.667 2.267 1 4.8 1 7.6 0 2-.133 5-.4 9s-.667 9.467-1.2 16.4c-.4 6.8-1 15.333-1.8 25.6-.8 10.133-1.8 22.4-3 36.8-.133 1.6-.467 2.667-1 3.2-.533.533-1.667.8-3.4.8h-7.2zm-14.2-133.6c0-5.333 1.933-9.533 5.8-12.6s9.067-4.6 15.6-4.6c5.733 0 9.867 1.2 12.4 3.6 2.667 2.267 4 5.333 4 9.2 0 4.933-1.867 9.067-5.6 12.4-3.6 3.2-8.933 4.8-16 4.8-10.8 0-16.2-4.267-16.2-12.8zM628.814 88c11.333 0 19.667 2.267 25 6.8 5.333 4.4 8 10.067 8 17 0 5.867-1.867 10.333-5.6 13.4-3.6 3.067-8.867 4.6-15.8 4.6-1.867 0-3.133-.2-3.8-.6-.667-.4-1-1.133-1-2.2 0-1.2-.133-2.533-.4-4-.133-1.6-.6-3.067-1.4-4.4-.667-1.467-1.8-2.667-3.4-3.6-1.467-.933-3.6-1.4-6.4-1.4-3.733 0-6.733.933-9 2.8-2.267 1.733-3.4 3.933-3.4 6.6 0 2.8 1.133 5.067 3.4 6.8 2.4 1.6 5.333 3.133 8.8 4.6 3.6 1.467 7.467 3 11.6 4.6a44.366 44.366 0 0111.4 6c3.6 2.533 6.533 5.733 8.8 9.6 2.4 3.733 3.6 8.6 3.6 14.6 0 9.6-3.4 17.467-10.2 23.6-6.8 6.133-17 9.2-30.6 9.2-3.733 0-8.067-.333-13-1-4.8-.533-9.4-1.4-13.8-2.6-4.4-1.333-8.133-3.067-11.2-5.2-2.933-2.133-4.4-4.8-4.4-8 0-1.2.2-2.667.6-4.4a23.778 23.778 0 012.2-5c1.067-1.6 2.267-2.933 3.6-4 1.467-1.2 3.2-1.8 5.2-1.8 1.6 0 3.067.4 4.4 1.2 1.333.8 2.867 1.667 4.6 2.6 1.867.8 4.133 1.6 6.8 2.4 2.667.8 6.2 1.2 10.6 1.2 3.333 0 6.267-.4 8.8-1.2 2.667-.8 4-2.6 4-5.4 0-2.533-1.067-4.533-3.2-6-2.133-1.6-4.867-3.067-8.2-4.4a357.096 357.096 0 00-10.6-4.2 50.088 50.088 0 01-10.6-6.2c-3.2-2.533-5.867-5.733-8-9.6-2.133-4-3.2-9.133-3.2-15.4 0-6.8 1.333-12.533 4-17.2 2.8-4.8 6.333-8.667 10.6-11.6 4.4-2.933 9.333-5 14.8-6.2 5.467-1.333 10.933-2 16.4-2zm133.745 87.2c.4-4.4.8-9 1.2-13.8.534-4.8.934-9.4 1.2-13.8.4-4.4.734-8.333 1-11.8.267-3.467.4-6 .4-7.6 0-3.467-.866-6.533-2.6-9.2-1.6-2.8-4.8-4.2-9.6-4.2-6.4 0-11.6 3-15.6 9-3.866 6-6.133 14-6.8 24-.266 2.8-.6 6.733-1 11.8-.4 4.933-.8 10-1.2 15.2-.4 5.067-.8 9.667-1.2 13.8-.266 4-.4 6.467-.4 7.4 0 1.6-.333 2.667-1 3.2-.533.533-1.666.8-3.4.8h-7.2c-4.133 0-7.533-.4-10.2-1.2-2.533-.933-4.6-2.2-6.2-3.8-1.466-1.6-2.533-3.533-3.2-5.8-.533-2.4-.8-5.133-.8-8.2 0-2.933.2-7 .6-12.2.534-5.333 1.2-12.6 2-21.8.8-9.333 1.734-21.2 2.8-35.6 1.067-14.4 2.2-32.267 3.4-53.6.134-2.933.467-4.667 1-5.2.4-.4 1.467-.6 3.2-.6h7.8c4 0 7.334.467 10 1.4 2.667.933 4.8 2.2 6.4 3.8a13.51 13.51 0 013.4 5.6c.667 2 1 4.133 1 6.4 0 2.4-.266 6.867-.8 13.4-.4 6.533-.933 14.2-1.6 23 4-6.667 8.4-11.267 13.2-13.8 4.934-2.533 11.134-3.8 18.6-3.8 5.6 0 10.467.6 14.6 1.8 4.134 1.2 7.534 3.267 10.2 6.2 2.8 2.8 4.867 6.533 6.2 11.2 1.334 4.533 2 10.2 2 17 0 2.133-.2 5.8-.6 11-.4 5.2-.933 11.133-1.6 17.8a1931.219 1931.219 0 01-1.8 21c-.533 7.2-1 13.8-1.4 19.8-.133 1.467-.266 2.6-.4 3.4-.133.8-.4 1.4-.8 1.8-.266.4-.733.667-1.4.8-.666.133-1.6.2-2.8.2h-6.4c-4.266 0-7.733-.4-10.4-1.2-2.666-.8-4.733-1.933-6.2-3.4-1.466-1.467-2.533-3.267-3.2-5.4-.533-2.267-.8-4.8-.8-7.6v-3.8c.134-1.2.267-2.333.4-3.4z" fill="#EF1019"/></svg>