<svg width="135" height="87" fill="none" xmlns="http://www.w3.org/2000/svg"><path d="M61.937 49.51c-9.92-14.237-18.29-28.21-18.846-37.96-.592-9.871 8.248-14.828 27.26-9.117 18.525 5.58 47.365 23.551 59.027 38.463 8.324 10.688 6.155 17.387-3.218 17.684-9.051.51-23.978-4.6-39.736-11.792 15.551 12.99 24.552 26.52 21.588 32.501-2.964 5.98-17.838 3.97-35.762-4.657 7.284 4.158 11.73 10.743 8.495 11.662-2.915 1.132-10.53-1.81-17.79-5.475C37.705 68.101 3.26 38.084.358 25.055c-3.15-15.3 40.688 2.37 61.58 24.454z" fill="#EF1019"/></svg>