<svg width="100" height="100" viewBox="0 0 100 100" fill="none" xmlns="http://www.w3.org/2000/svg">
<path d="M49.5316 29.6174C38.0325 29.6174 28.7573 38.8354 28.7573 50.2635C28.7573 61.6916 38.0325 70.9096 49.5316 70.9096C61.0308 70.9096 70.306 61.6916 70.306 50.2635C70.306 38.8354 61.0308 29.6174 49.5316 29.6174ZM49.5316 63.6861C42.1006 63.6861 36.0256 57.6666 36.0256 50.2635C36.0256 42.8604 42.0825 36.8408 49.5316 36.8408C56.9808 36.8408 63.0377 42.8604 63.0377 50.2635C63.0377 57.6666 56.9627 63.6861 49.5316 63.6861ZM76.0013 28.7729C76.0013 31.4502 73.8316 33.5885 71.1558 33.5885C68.4618 33.5885 66.3102 31.4322 66.3102 28.7729C66.3102 26.1135 68.4799 23.9572 71.1558 23.9572C73.8316 23.9572 76.0013 26.1135 76.0013 28.7729ZM89.7604 33.6604C89.4531 27.2096 87.9705 21.4955 83.2154 16.7877C78.4783 12.0799 72.7287 10.6064 66.2379 10.283C59.5482 9.90566 39.497 9.90566 32.8073 10.283C26.3345 10.5885 20.585 12.0619 15.8299 16.7697C11.0747 21.4775 9.61021 27.1916 9.28477 33.6424C8.90508 40.2908 8.90508 60.2182 9.28477 66.8666C9.59213 73.3174 11.0747 79.0314 15.8299 83.7393C20.585 88.4471 26.3165 89.9205 32.8073 90.2439C39.497 90.6213 59.5482 90.6213 66.2379 90.2439C72.7287 89.9385 78.4783 88.465 83.2154 83.7393C87.9524 79.0314 89.435 73.3174 89.7604 66.8666C90.1401 60.2182 90.1401 40.3088 89.7604 33.6604ZM81.118 74.0002C79.7078 77.5221 76.9776 80.2354 73.4158 81.6549C68.0821 83.7572 55.4258 83.2721 49.5316 83.2721C43.6374 83.2721 30.9631 83.7393 25.6475 81.6549C22.1037 80.2533 19.3736 77.54 17.9453 74.0002C15.8299 68.6994 16.318 56.1213 16.318 50.2635C16.318 44.4057 15.8479 31.8096 17.9453 26.5268C19.3555 23.0049 22.0857 20.2916 25.6475 18.8721C30.9812 16.7697 43.6374 17.2549 49.5316 17.2549C55.4258 17.2549 68.1002 16.7877 73.4158 18.8721C76.9595 20.2736 79.6897 22.9869 81.118 26.5268C83.2334 31.8275 82.7453 44.4057 82.7453 50.2635C82.7453 56.1213 83.2334 68.7174 81.118 74.0002Z" fill="#333333"/>
</svg>
