<svg width="100" height="100" viewBox="0 0 100 100" fill="none" xmlns="http://www.w3.org/2000/svg">
<path d="M50 5C25.1471 5 5 25.1471 5 50C5 74.8529 25.1471 95 50 95C74.8529 95 95 74.8529 95 50C95 25.1471 74.8529 5 50 5ZM70.8582 35.6036C70.181 42.7193 67.2508 59.9867 65.7594 67.9565C65.1287 71.3285 63.8865 72.4594 62.6842 72.5699C60.0713 72.8105 58.0866 70.843 55.5555 69.1838C51.595 66.5876 49.3575 64.9714 45.5129 62.438C41.07 59.5102 43.9502 57.9017 46.4822 55.2706C47.1449 54.5824 58.6589 44.1095 58.8817 43.1595C58.9095 43.0406 58.9361 42.597 58.6723 42.364C58.4085 42.131 58.0209 42.2099 57.7405 42.2732C57.3434 42.3635 51.0163 46.5455 38.7593 54.8192C36.9635 56.0523 35.3368 56.6532 33.8793 56.6217C32.2725 56.5871 29.1819 55.7134 26.8842 54.9663C24.066 54.0504 21.8262 53.5661 22.0213 52.0103C22.1229 51.1998 23.2388 50.3712 25.369 49.5244C38.4875 43.8089 47.2352 40.0408 51.612 38.22C64.109 33.0219 66.7057 32.119 68.3983 32.0889C68.7706 32.0827 69.6029 32.1749 70.142 32.6124C70.5007 32.924 70.7292 33.3589 70.7826 33.831C70.8739 34.4172 70.8993 35.0118 70.8582 35.6036V35.6036Z" fill="#333333"/>
</svg>
