<svg width="24" height="24" viewBox="0 0 24 24" fill="none" xmlns="http://www.w3.org/2000/svg">
<rect width="24" height="24" rx="12" fill="#EF1019"/>
<path d="M11.3544 5.46733C11.5593 4.84423 12.4407 4.84422 12.6457 5.46733L13.9954 9.57133C14.0628 9.77636 14.2236 9.9372 14.4287 10.0046L18.5327 11.3544C19.1558 11.5593 19.1558 12.4407 18.5327 12.6456L14.4287 13.9954C14.2236 14.0628 14.0628 14.2236 13.9954 14.4287L12.6457 18.5327C12.4407 19.1558 11.5593 19.1558 11.3544 18.5327L10.0046 14.4287C9.9372 14.2236 9.77637 14.0628 9.57133 13.9954L5.46733 12.6456C4.84423 12.4407 4.84422 11.5593 5.46733 11.3544L9.57133 10.0046C9.77637 9.9372 9.9372 9.77636 10.0046 9.57133L11.3544 5.46733Z" fill="white"/>
</svg>
