<svg width="60" height="41" viewBox="0 0 60 41" fill="none" xmlns="http://www.w3.org/2000/svg">
<path d="M0 20.9858C0 9.94015 8.95431 0.98584 20 0.98584H40C51.0457 0.98584 60 9.94015 60 20.9858V20.9858C60 32.0315 51.0457 40.9858 40 40.9858H20C8.9543 40.9858 0 32.0315 0 20.9858V20.9858Z" fill="#EF1019"/>
<path d="M29.0771 19.5151V21.6069C29.0771 22.6089 28.9775 23.4644 28.7783 24.1733C28.585 24.8765 28.3037 25.4478 27.9346 25.8872C27.5654 26.3267 27.123 26.6489 26.6074 26.854C26.0977 27.0591 25.5264 27.1616 24.8936 27.1616C24.3896 27.1616 23.9209 27.0972 23.4873 26.9683C23.0596 26.8394 22.6729 26.6372 22.3271 26.3618C21.9814 26.0864 21.6855 25.7319 21.4395 25.2983C21.1992 24.8589 21.0117 24.3345 20.877 23.7251C20.748 23.1157 20.6836 22.4097 20.6836 21.6069V19.5151C20.6836 18.5073 20.7832 17.6577 20.9824 16.9663C21.1816 16.269 21.4658 15.7036 21.835 15.27C22.2041 14.8306 22.6436 14.5112 23.1533 14.312C23.6689 14.1128 24.2432 14.0132 24.876 14.0132C25.3857 14.0132 25.8545 14.0776 26.2822 14.2065C26.7158 14.3296 27.1025 14.5259 27.4424 14.7954C27.7881 15.0649 28.0811 15.4165 28.3213 15.8501C28.5674 16.2778 28.7549 16.7964 28.8838 17.4058C29.0127 18.0093 29.0771 18.7124 29.0771 19.5151ZM26.959 21.9058V19.1987C26.959 18.689 26.9297 18.2407 26.8711 17.854C26.8125 17.4614 26.7246 17.1304 26.6074 16.8608C26.4961 16.5854 26.3555 16.3628 26.1855 16.1929C26.0156 16.0171 25.8223 15.8911 25.6055 15.8149C25.3887 15.7329 25.1455 15.6919 24.876 15.6919C24.5479 15.6919 24.2549 15.7563 23.9971 15.8853C23.7393 16.0083 23.5225 16.2075 23.3467 16.4829C23.1709 16.7583 23.0361 17.1216 22.9424 17.5728C22.8545 18.0181 22.8105 18.5601 22.8105 19.1987V21.9058C22.8105 22.4214 22.8398 22.8755 22.8984 23.2681C22.957 23.6606 23.0449 23.9976 23.1621 24.2788C23.2793 24.5542 23.4199 24.7827 23.584 24.9644C23.7539 25.1401 23.9473 25.269 24.1641 25.3511C24.3867 25.4331 24.6299 25.4741 24.8936 25.4741C25.2275 25.4741 25.5234 25.4097 25.7812 25.2808C26.0391 25.1519 26.2559 24.9468 26.4316 24.6655C26.6074 24.3784 26.7393 24.0063 26.8271 23.5493C26.915 23.0923 26.959 22.5444 26.959 21.9058ZM36.75 14.145V26.9858H34.6318V16.6587L31.4941 17.7222V15.9731L36.4951 14.145H36.75Z" fill="white"/>
</svg>
