<svg width="1345" height="240" viewBox="0 0 1345 240" fill="none" xmlns="http://www.w3.org/2000/svg">
<path d="M962.137 49.8156C963.706 52.7274 964.513 55.8483 964.513 59L953.258 59C953.258 57.1615 952.729 55.341 951.7 53.6424C950.672 51.9439 949.165 50.4005 947.264 49.1005C945.364 47.8005 943.108 46.7693 940.626 46.0657C938.143 45.3621 935.482 45 932.795 45C930.107 45 927.446 45.3621 924.964 46.0657C922.481 46.7693 920.225 47.8005 918.325 49.1005C916.425 50.4005 914.917 51.9439 913.889 53.6424C912.86 55.341 912.331 57.1615 912.331 59L902.099 59C902.099 55.8483 902.907 52.7274 904.475 49.8156C906.043 46.9038 908.342 44.258 911.24 42.0294C914.137 39.8008 917.578 38.033 921.364 36.8269C925.15 35.6208 929.208 35 933.306 35C937.404 35 941.462 35.6208 945.248 36.8269C949.035 38.033 952.475 39.8008 955.373 42.0294C958.27 44.258 960.569 46.9038 962.137 49.8156Z" fill="#242323"/>
<path d="M864.097 180.246C864.097 191.292 854.917 200.246 843.592 200.246C832.268 200.246 823.087 191.292 823.087 180.246C823.087 169.201 832.268 160.246 843.592 160.246C854.917 160.246 864.097 169.201 864.097 180.246Z" fill="#242323"/>
<path fill-rule="evenodd" clip-rule="evenodd" d="M1279.1 201C1265.94 201 1254.49 198.699 1244.73 194.096C1234.83 189.562 1227.14 182.899 1221.65 174.106C1216.15 165.313 1213.41 154.872 1213.41 142.781C1213.41 130.76 1216.15 120.559 1221.65 112.178C1227.14 103.729 1234.83 97.3745 1244.73 93.1154C1254.63 88.7877 1266.09 86.6238 1279.1 86.6238C1292.46 86.6238 1304.06 88.822 1313.89 93.2185C1323.79 97.6149 1331.45 104.003 1336.87 112.384C1342.29 120.696 1345 130.829 1345 142.781C1345 154.872 1342.29 165.313 1336.87 174.106C1331.38 182.899 1323.65 189.597 1313.67 194.199C1303.77 198.733 1292.25 201 1279.1 201ZM1279.1 170.912C1283.87 170.912 1287.41 168.679 1289.72 164.214C1291.96 159.886 1293.08 152.742 1293.08 142.781C1293.08 133.645 1291.96 127.05 1289.72 122.997C1287.55 118.876 1284.01 116.815 1279.1 116.815C1274.4 116.815 1270.93 118.876 1268.69 122.997C1266.45 127.05 1265.33 133.645 1265.33 142.781C1265.33 152.536 1266.49 159.68 1268.8 164.214C1271.11 168.679 1274.54 170.912 1279.1 170.912Z" fill="#242323"/>
<path d="M1179.16 196.162C1179.16 197.81 1177.78 199.145 1176.08 199.145H1098.98C1097.29 199.145 1095.91 197.81 1095.91 196.162V171.113C1095.91 169.465 1097.29 168.13 1098.98 168.13H1106.82C1108.51 168.13 1109.89 166.794 1109.89 165.147V123.61C1109.89 121.963 1108.51 120.628 1106.82 120.628H1098.98C1097.29 120.628 1095.91 119.292 1095.91 117.645V95.5146C1095.91 93.9784 1097.11 92.6934 1098.69 92.5455L1158.44 86.9401C1160.25 86.7706 1161.81 88.1483 1161.81 89.9092V94.5284C1161.81 97.4946 1166.5 99.1532 1168.96 97.381C1169.91 96.6929 1170.92 96.0267 1172 95.3823C1176.48 92.6346 1181.25 90.505 1186.31 88.9938C1190.18 87.8008 1193.75 87.0582 1197.01 86.766C1198.7 86.6142 1200.08 87.9593 1200.08 89.6068V126.201C1200.08 128.229 1198.03 129.664 1196.02 129.1C1189.37 127.23 1183.74 126.295 1179.16 126.295C1172.22 126.295 1167.59 128.218 1165.28 132.065C1162.97 135.843 1161.81 140.824 1161.81 147.006V165.147C1161.81 166.794 1163.19 168.13 1164.89 168.13H1176.08C1177.78 168.13 1179.16 169.465 1179.16 171.113V196.162Z" fill="#242323"/>
<path d="M902.099 59V197C902.099 198.105 903.013 199 904.146 199H910.295C911.428 199 912.346 198.105 912.346 197V59L902.099 59Z" fill="#242323"/>
<path fill-rule="evenodd" clip-rule="evenodd" d="M953.258 59L953.234 196.363C953.234 198.016 954.606 199.358 956.302 199.363L1010.48 199.5C1031.51 199.5 1047.73 195.722 1059.15 188.165C1070.64 180.54 1076.38 169.755 1076.38 155.81C1076.38 144.407 1073.96 135.442 1069.12 128.917C1065.55 124.028 1060.5 119.814 1053.96 116.274C1051.52 114.951 1051.6 111.11 1054.02 109.756C1058.58 107.215 1062.52 103.916 1065.87 99.8588C1070.86 93.8137 1073.35 86.7038 1073.35 78.5292C1073.35 66.9198 1070.42 57.9552 1064.57 51.6353C1058.72 45.2467 1050.84 40.919 1040.94 38.6521C1030.82 36.4538 1018.72 35 1004.42 35H934.841L953.258 41.5V59ZM989.669 74.8144V98.6275C989.669 100.275 991.046 101.61 992.745 101.61H995.631C1003.87 101.61 1009.94 100.511 1013.84 98.3131C1017.82 96.1149 1019.8 91.9933 1019.8 85.9482C1019.8 81.7578 1018.43 78.3574 1015.68 75.747C1012.94 73.1367 1009.36 71.8315 1004.95 71.8315H992.745C991.046 71.8315 989.669 73.167 989.669 74.8144ZM989.669 131.46V160.246C989.669 161.894 991.046 163.229 992.745 163.229H993.571C1002.32 163.229 1009.04 162.062 1013.73 159.726C1018.5 157.39 1020.89 152.582 1020.89 145.3C1020.89 134.034 1013.66 128.401 999.208 128.401C997.618 128.401 996.028 128.436 994.438 128.504C993.829 128.504 993.219 128.509 992.609 128.519C990.964 128.547 989.669 129.865 989.669 131.46Z" fill="#242323"/>
<path d="M929.861 59L936.376 59C937.511 59 937.984 59.8901 937.977 61V197C937.977 198.105 937.059 199 935.926 199H929.865C928.733 199 927.815 198.105 927.815 197V61C927.815 59.8954 928.731 59 929.861 59Z" fill="#EF1019"/>
<path d="M42.9047 200C35.438 200 30.1047 198.533 26.9047 195.6C23.7047 192.667 22.1047 188.467 22.1047 183C22.1047 180.333 22.3047 175.8 22.7047 169.4C23.1047 162.867 23.638 155.467 24.3047 147.2C24.9714 138.933 25.638 130.2 26.3047 121C26.9714 111.8 27.638 103.133 28.3047 95C28.9714 86.8667 29.5047 79.7333 29.9047 73.6C30.3047 67.4667 30.5047 63.2667 30.5047 61C30.5047 59 31.5714 58 33.7047 58H104.105C104.905 58 105.638 58.2 106.305 58.6C106.971 59 107.305 59.7333 107.305 60.8L106.505 72.6C106.238 76.6 105.105 79.8667 103.105 82.4C101.238 84.8 97.3047 86 91.3047 86H63.7047L61.7047 114.2H90.1047C90.9047 114.2 91.638 114.4 92.3047 114.8C92.9714 115.2 93.3047 115.933 93.3047 117L92.5047 128.8C92.238 132.8 91.1047 136.067 89.1047 138.6C87.238 141 83.3047 142.2 77.3047 142.2H59.9047L57.7047 172H101.705C102.505 172 103.238 172.267 103.905 172.8C104.571 173.2 104.905 173.867 104.905 174.8L104.105 186.6C103.838 190.6 102.705 193.867 100.705 196.4C98.838 198.8 94.9047 200 88.9047 200H42.9047ZM208.5 182.4C208.5 179.467 208.7 175.667 209.1 171C209.633 166.2 210.1 161.2 210.5 156C211.033 150.667 211.5 145.533 211.9 140.6C212.433 135.667 212.7 131.533 212.7 128.2C212.7 124.733 211.833 121.667 210.1 119C208.5 116.2 205.3 114.8 200.5 114.8C195.833 114.8 191.967 115.933 188.9 118.2C185.833 120.467 183.233 124.6 181.1 130.6C179.1 136.6 177.433 144.867 176.1 155.4C174.767 165.933 173.5 179.467 172.3 196C172.167 197.6 171.833 198.667 171.3 199.2C170.767 199.733 169.633 200 167.9 200H160.7C156.567 200 153.167 199.6 150.5 198.8C147.967 197.867 145.9 196.6 144.3 195C142.833 193.4 141.767 191.467 141.1 189.2C140.567 186.8 140.3 184.067 140.3 181C140.3 179 140.367 176.2 140.5 172.6C140.767 168.867 141.167 163.8 141.7 157.4C142.233 150.867 142.833 142.667 143.5 132.8C144.3 122.8 145.233 110.467 146.3 95.8C146.433 92.8667 146.767 91.1333 147.3 90.6C147.7 90.2 148.767 90 150.5 90H158.3C162.3 90 165.567 90.4667 168.1 91.4C170.767 92.3333 172.9 93.6 174.5 95.2C176.1 96.6667 177.233 98.4667 177.9 100.6C178.567 102.6 178.967 104.667 179.1 106.8C183.233 99.7333 187.967 94.8667 193.3 92.2C198.633 89.4 205.3 88 213.3 88C218.9 88 223.767 88.6 227.9 89.8C232.033 91 235.433 93.0667 238.1 96C240.9 98.8 242.967 102.533 244.3 107.2C245.633 111.733 246.3 117.4 246.3 124.2C246.3 126.333 246.167 129.4 245.9 133.4C245.633 137.4 245.3 141.8 244.9 146.6C244.5 151.267 244.033 156.2 243.5 161.4C243.1 166.467 242.7 171.2 242.3 175.6C241.9 180 241.567 183.867 241.3 187.2C241.033 190.533 240.9 192.733 240.9 193.8C240.9 196.733 240.567 198.533 239.9 199.2C239.233 199.733 237.767 200 235.5 200H229.1C224.833 200 221.367 199.6 218.7 198.8C216.033 198 213.967 196.867 212.5 195.4C211.033 193.933 209.967 192.133 209.3 190C208.767 187.733 208.5 185.2 208.5 182.4ZM349.528 176.4C346.195 182.4 342.128 186.867 337.328 189.8C332.528 192.6 326.528 194 319.328 194C313.861 194 308.861 193.133 304.328 191.4C299.795 189.667 295.928 186.933 292.728 183.2C289.528 179.467 286.995 174.8 285.128 169.2C283.395 163.467 282.528 156.667 282.528 148.8C282.528 142.4 283.195 135.667 284.528 128.6C285.861 121.4 288.261 114.8 291.728 108.8C295.328 102.8 300.195 97.8667 306.328 94C312.461 90 320.328 88 329.928 88C333.928 88 337.328 88.4667 340.128 89.4C343.061 90.2 345.528 91.3333 347.528 92.8C349.661 94.2667 351.328 96 352.528 98C353.861 100 354.861 102.133 355.528 104.4C355.528 104.533 355.528 104.067 355.528 103C355.661 101.8 355.795 100.467 355.928 99C356.061 97.5333 356.128 96.1333 356.128 94.8C356.261 93.3333 356.328 92.4 356.328 92C356.461 90.6667 357.328 90 358.928 90H368.128C375.061 90 380.061 91.4667 383.128 94.4C386.328 97.2 387.928 102.6 387.928 110.6C387.928 111.667 387.861 114.133 387.728 118C387.595 121.733 387.328 126.267 386.928 131.6C386.661 136.933 386.261 142.867 385.728 149.4C385.195 155.8 384.595 162.267 383.928 168.8C383.261 175.333 382.528 181.6 381.728 187.6C380.928 193.6 380.061 198.867 379.128 203.4C378.195 207.933 376.595 212.333 374.328 216.6C372.061 220.867 368.861 224.667 364.728 228C360.595 231.333 355.261 234 348.728 236C342.328 238 334.461 239 325.128 239C318.061 239 311.861 238.333 306.528 237C301.328 235.667 296.995 233.867 293.528 231.6C290.061 229.467 287.395 227 285.528 224.2C283.795 221.4 282.928 218.6 282.928 215.8C282.928 213.267 283.461 211.067 284.528 209.2C285.595 207.333 286.995 205.8 288.728 204.6C290.461 203.4 292.328 202.467 294.328 201.8C296.461 201.267 298.461 201 300.328 201C302.595 201 304.261 201.667 305.328 203C306.395 204.333 307.595 205.8 308.928 207.4C310.261 209.133 312.128 210.667 314.528 212C316.928 213.333 320.661 214 325.728 214C334.528 214 340.661 210.733 344.128 204.2C347.728 197.8 349.528 188.533 349.528 176.4ZM332.728 167.4C337.528 167.4 341.261 166.267 343.928 164C346.728 161.733 348.861 159 350.328 155.8C351.795 152.6 352.728 149.267 353.128 145.8C353.528 142.333 353.728 139.333 353.728 136.8C353.728 128.8 352.461 123.133 349.928 119.8C347.528 116.333 343.861 114.6 338.928 114.6C333.995 114.6 330.128 115.933 327.328 118.6C324.528 121.267 322.395 124.467 320.928 128.2C319.595 131.8 318.728 135.467 318.328 139.2C317.928 142.8 317.728 145.6 317.728 147.6C317.728 154.267 318.861 159.267 321.128 162.6C323.395 165.8 327.261 167.4 332.728 167.4ZM448.813 201.8C440.546 201.8 434.613 199.6 431.013 195.2C427.413 190.8 425.613 183.533 425.613 173.4C425.613 171.8 425.679 169.8 425.813 167.4C426.079 165 426.346 161.933 426.613 158.2C427.013 154.333 427.479 149.6 428.013 144C428.546 138.4 429.079 131.6 429.613 123.6C430.279 115.6 430.946 106.2 431.613 95.4C432.413 84.6 433.213 72.0667 434.013 57.8C434.146 54.8667 434.479 53.1333 435.013 52.6C435.413 52.2 436.479 52 438.213 52H446.013C450.013 52 453.346 52.4667 456.013 53.4C458.679 54.3333 460.813 55.6 462.413 57.2C464.013 58.8 465.146 60.6667 465.813 62.8C466.479 64.8 466.813 66.9333 466.813 69.2C466.813 71.8667 466.613 75.7333 466.213 80.8C465.946 85.7333 465.546 91.3333 465.013 97.6C464.479 103.867 463.946 110.4 463.413 117.2C462.879 124 462.346 130.533 461.813 136.8C461.279 142.933 460.813 148.467 460.413 153.4C460.146 158.333 460.013 162.067 460.013 164.6C460.013 168.067 460.613 170.533 461.813 172C463.146 173.467 464.546 174.533 466.013 175.2C467.479 175.733 468.813 176.133 470.013 176.4C471.346 176.533 472.013 176.933 472.013 177.6C472.013 180.533 471.679 183.467 471.013 186.4C470.346 189.2 469.146 191.8 467.413 194.2C465.679 196.467 463.279 198.333 460.213 199.8C457.279 201.133 453.479 201.8 448.813 201.8ZM526.564 200C522.431 200 519.031 199.6 516.364 198.8C513.831 197.867 511.764 196.6 510.164 195C508.697 193.4 507.631 191.467 506.964 189.2C506.431 186.8 506.164 184.067 506.164 181C506.164 179 506.231 176.2 506.364 172.6C506.631 168.867 507.031 163.8 507.564 157.4C508.097 150.867 508.697 142.667 509.364 132.8C510.164 122.8 511.097 110.467 512.164 95.8C512.297 92.8667 512.631 91.1333 513.164 90.6C513.564 90.2 514.631 90 516.364 90H524.164C528.297 90 531.631 90.4 534.164 91.2C536.831 92 538.897 93.2 540.364 94.8C541.964 96.4 543.031 98.3333 543.564 100.6C544.231 102.867 544.564 105.4 544.564 108.2C544.564 110.2 544.431 113.2 544.164 117.2C543.897 121.2 543.497 126.667 542.964 133.6C542.564 140.4 541.964 148.933 541.164 159.2C540.364 169.333 539.364 181.6 538.164 196C538.031 197.6 537.697 198.667 537.164 199.2C536.631 199.733 535.497 200 533.764 200H526.564ZM512.364 66.4C512.364 61.0667 514.297 56.8667 518.164 53.8C522.031 50.7333 527.231 49.2 533.764 49.2C539.497 49.2 543.631 50.4 546.164 52.8C548.831 55.0667 550.164 58.1333 550.164 62C550.164 66.9333 548.297 71.0667 544.564 74.4C540.964 77.6 535.631 79.2 528.564 79.2C517.764 79.2 512.364 74.9333 512.364 66.4ZM628.814 88C640.147 88 648.481 90.2667 653.814 94.8C659.147 99.2 661.814 104.867 661.814 111.8C661.814 117.667 659.947 122.133 656.214 125.2C652.614 128.267 647.347 129.8 640.414 129.8C638.547 129.8 637.281 129.6 636.614 129.2C635.947 128.8 635.614 128.067 635.614 127C635.614 125.8 635.481 124.467 635.214 123C635.081 121.4 634.614 119.933 633.814 118.6C633.147 117.133 632.014 115.933 630.414 115C628.947 114.067 626.814 113.6 624.014 113.6C620.281 113.6 617.281 114.533 615.014 116.4C612.747 118.133 611.614 120.333 611.614 123C611.614 125.8 612.747 128.067 615.014 129.8C617.414 131.4 620.347 132.933 623.814 134.4C627.414 135.867 631.281 137.4 635.414 139C639.547 140.467 643.347 142.467 646.814 145C650.414 147.533 653.347 150.733 655.614 154.6C658.014 158.333 659.214 163.2 659.214 169.2C659.214 178.8 655.814 186.667 649.014 192.8C642.214 198.933 632.014 202 618.414 202C614.681 202 610.347 201.667 605.414 201C600.614 200.467 596.014 199.6 591.614 198.4C587.214 197.067 583.481 195.333 580.414 193.2C577.481 191.067 576.014 188.4 576.014 185.2C576.014 184 576.214 182.533 576.614 180.8C577.147 179.067 577.881 177.4 578.814 175.8C579.881 174.2 581.081 172.867 582.414 171.8C583.881 170.6 585.614 170 587.614 170C589.214 170 590.681 170.4 592.014 171.2C593.347 172 594.881 172.867 596.614 173.8C598.481 174.6 600.747 175.4 603.414 176.2C606.081 177 609.614 177.4 614.014 177.4C617.347 177.4 620.281 177 622.814 176.2C625.481 175.4 626.814 173.6 626.814 170.8C626.814 168.267 625.747 166.267 623.614 164.8C621.481 163.2 618.747 161.733 615.414 160.4C612.214 159.067 608.681 157.667 604.814 156.2C601.081 154.6 597.547 152.533 594.214 150C591.014 147.467 588.347 144.267 586.214 140.4C584.081 136.4 583.014 131.267 583.014 125C583.014 118.2 584.347 112.467 587.014 107.8C589.814 103 593.347 99.1333 597.614 96.2C602.014 93.2667 606.947 91.2 612.414 90C617.881 88.6667 623.347 88 628.814 88ZM762.559 175.2C762.959 170.8 763.359 166.2 763.759 161.4C764.293 156.6 764.693 152 764.959 147.6C765.359 143.2 765.693 139.267 765.959 135.8C766.226 132.333 766.359 129.8 766.359 128.2C766.359 124.733 765.493 121.667 763.759 119C762.159 116.2 758.959 114.8 754.159 114.8C747.759 114.8 742.559 117.8 738.559 123.8C734.693 129.8 732.426 137.8 731.759 147.8C731.493 150.6 731.159 154.533 730.759 159.6C730.359 164.533 729.959 169.6 729.559 174.8C729.159 179.867 728.759 184.467 728.359 188.6C728.093 192.6 727.959 195.067 727.959 196C727.959 197.6 727.626 198.667 726.959 199.2C726.426 199.733 725.293 200 723.559 200H716.359C712.226 200 708.826 199.6 706.159 198.8C703.626 197.867 701.559 196.6 699.959 195C698.493 193.4 697.426 191.467 696.759 189.2C696.226 186.8 695.959 184.067 695.959 181C695.959 178.067 696.159 174 696.559 168.8C697.093 163.467 697.759 156.2 698.559 147C699.359 137.667 700.293 125.8 701.359 111.4C702.426 97 703.559 79.1333 704.759 57.8C704.893 54.8667 705.226 53.1333 705.759 52.6C706.159 52.2 707.226 52 708.959 52H716.759C720.759 52 724.093 52.4667 726.759 53.4C729.426 54.3333 731.559 55.6 733.159 57.2C734.759 58.8 735.893 60.6667 736.559 62.8C737.226 64.8 737.559 66.9333 737.559 69.2C737.559 71.6 737.293 76.0667 736.759 82.6C736.359 89.1333 735.826 96.8 735.159 105.6C739.159 98.9333 743.559 94.3333 748.359 91.8C753.293 89.2667 759.493 88 766.959 88C772.559 88 777.426 88.6 781.559 89.8C785.693 91 789.093 93.0667 791.759 96C794.559 98.8 796.626 102.533 797.959 107.2C799.293 111.733 799.959 117.4 799.959 124.2C799.959 126.333 799.759 130 799.359 135.2C798.959 140.4 798.426 146.333 797.759 153C797.226 159.667 796.626 166.667 795.959 174C795.426 181.2 794.959 187.8 794.559 193.8C794.426 195.267 794.293 196.4 794.159 197.2C794.026 198 793.759 198.6 793.359 199C793.093 199.4 792.626 199.667 791.959 199.8C791.293 199.933 790.359 200 789.159 200H782.759C778.493 200 775.026 199.6 772.359 198.8C769.693 198 767.626 196.867 766.159 195.4C764.693 193.933 763.626 192.133 762.959 190C762.426 187.733 762.159 185.2 762.159 182.4C762.159 181.067 762.159 179.8 762.159 178.6C762.293 177.4 762.426 176.267 762.559 175.2Z" fill="#EF1019"/>
</svg>
