<svg width="135" height="87" viewBox="0 0 135 87" fill="none" xmlns="http://www.w3.org/2000/svg">
<path d="M61.9374 49.5093C52.0165 35.2733 43.6461 21.2995 43.0907 11.5492C42.4986 1.67894 51.3391 -3.27814 70.3516 2.43347C88.8755 8.0128 117.716 25.9842 129.378 40.8958C137.702 51.5836 135.533 58.2834 126.16 58.5795C117.109 59.0891 102.182 53.9793 86.4245 46.7879C101.975 59.7775 110.976 73.3084 108.012 79.2894C105.048 85.2699 90.1739 83.2592 72.2504 74.6317C79.5338 78.7905 83.9801 85.3755 80.7445 86.2944C77.8304 87.4256 70.2153 84.4837 62.9554 80.8191C37.7056 68.1007 3.26 38.0838 0.357814 25.055C-2.7916 9.75565 41.046 27.4259 61.9374 49.5093Z" fill="#EF1019"/>
</svg>
