<svg width="60" height="41" viewBox="0 0 60 41" fill="none" xmlns="http://www.w3.org/2000/svg">
<path d="M0 20.9858C0 9.94015 8.95431 0.98584 20 0.98584H40C51.0457 0.98584 60 9.94015 60 20.9858V20.9858C60 32.0315 51.0457 40.9858 40 40.9858H20C8.9543 40.9858 0 32.0315 0 20.9858V20.9858Z" fill="#EF1019"/>
<path d="M29.0771 19.5151V21.6069C29.0771 22.6089 28.9775 23.4644 28.7783 24.1733C28.585 24.8765 28.3037 25.4478 27.9346 25.8872C27.5654 26.3267 27.123 26.6489 26.6074 26.854C26.0977 27.0591 25.5264 27.1616 24.8936 27.1616C24.3896 27.1616 23.9209 27.0972 23.4873 26.9683C23.0596 26.8394 22.6729 26.6372 22.3271 26.3618C21.9814 26.0864 21.6855 25.7319 21.4395 25.2983C21.1992 24.8589 21.0117 24.3345 20.877 23.7251C20.748 23.1157 20.6836 22.4097 20.6836 21.6069V19.5151C20.6836 18.5073 20.7832 17.6577 20.9824 16.9663C21.1816 16.269 21.4658 15.7036 21.835 15.27C22.2041 14.8306 22.6436 14.5112 23.1533 14.312C23.6689 14.1128 24.2432 14.0132 24.876 14.0132C25.3857 14.0132 25.8545 14.0776 26.2822 14.2065C26.7158 14.3296 27.1025 14.5259 27.4424 14.7954C27.7881 15.0649 28.0811 15.4165 28.3213 15.8501C28.5674 16.2778 28.7549 16.7964 28.8838 17.4058C29.0127 18.0093 29.0771 18.7124 29.0771 19.5151ZM26.959 21.9058V19.1987C26.959 18.689 26.9297 18.2407 26.8711 17.854C26.8125 17.4614 26.7246 17.1304 26.6074 16.8608C26.4961 16.5854 26.3555 16.3628 26.1855 16.1929C26.0156 16.0171 25.8223 15.8911 25.6055 15.8149C25.3887 15.7329 25.1455 15.6919 24.876 15.6919C24.5479 15.6919 24.2549 15.7563 23.9971 15.8853C23.7393 16.0083 23.5225 16.2075 23.3467 16.4829C23.1709 16.7583 23.0361 17.1216 22.9424 17.5728C22.8545 18.0181 22.8105 18.5601 22.8105 19.1987V21.9058C22.8105 22.4214 22.8398 22.8755 22.8984 23.2681C22.957 23.6606 23.0449 23.9976 23.1621 24.2788C23.2793 24.5542 23.4199 24.7827 23.584 24.9644C23.7539 25.1401 23.9473 25.269 24.1641 25.3511C24.3867 25.4331 24.6299 25.4741 24.8936 25.4741C25.2275 25.4741 25.5234 25.4097 25.7812 25.2808C26.0391 25.1519 26.2559 24.9468 26.4316 24.6655C26.6074 24.3784 26.7393 24.0063 26.8271 23.5493C26.915 23.0923 26.959 22.5444 26.959 21.9058ZM33.4541 19.6294H34.7197C35.2119 19.6294 35.6191 19.5444 35.9414 19.3745C36.2695 19.2046 36.5127 18.9702 36.6709 18.6714C36.8291 18.3726 36.9082 18.0298 36.9082 17.6431C36.9082 17.2388 36.835 16.8931 36.6885 16.606C36.5479 16.313 36.3311 16.0874 36.0381 15.9292C35.751 15.771 35.3848 15.6919 34.9395 15.6919C34.5645 15.6919 34.2246 15.7681 33.9199 15.9204C33.6211 16.0669 33.3838 16.2778 33.208 16.5532C33.0322 16.8228 32.9443 17.145 32.9443 17.52H30.8174C30.8174 16.8403 30.9961 16.2368 31.3535 15.7095C31.7109 15.1821 32.1973 14.769 32.8125 14.4702C33.4336 14.1655 34.1309 14.0132 34.9043 14.0132C35.7305 14.0132 36.4512 14.1509 37.0664 14.4263C37.6875 14.6958 38.1709 15.1001 38.5166 15.6392C38.8623 16.1782 39.0352 16.8462 39.0352 17.6431C39.0352 18.0063 38.9502 18.3755 38.7803 18.7505C38.6104 19.1255 38.3584 19.4683 38.0244 19.7788C37.6904 20.0835 37.2744 20.3325 36.7764 20.5259C36.2783 20.7134 35.7012 20.8071 35.0449 20.8071H33.4541V19.6294ZM33.4541 21.2817V20.1216H35.0449C35.7949 20.1216 36.4336 20.2095 36.9609 20.3853C37.4941 20.561 37.9277 20.8042 38.2617 21.1147C38.5957 21.4194 38.8389 21.7681 38.9912 22.1606C39.1494 22.5532 39.2285 22.9692 39.2285 23.4087C39.2285 24.0063 39.1201 24.5396 38.9033 25.0083C38.6924 25.4712 38.3906 25.8638 37.998 26.186C37.6055 26.5083 37.1455 26.7515 36.6182 26.9155C36.0967 27.0796 35.5283 27.1616 34.9131 27.1616C34.3623 27.1616 33.835 27.0854 33.3311 26.9331C32.8271 26.7808 32.376 26.5552 31.9775 26.2563C31.5791 25.9517 31.2627 25.5737 31.0283 25.1226C30.7998 24.6655 30.6855 24.1382 30.6855 23.5405H32.8037C32.8037 23.9214 32.8916 24.2583 33.0674 24.5513C33.249 24.8384 33.501 25.064 33.8232 25.228C34.1514 25.3921 34.5264 25.4741 34.9482 25.4741C35.3936 25.4741 35.7773 25.395 36.0996 25.2368C36.4219 25.0786 36.668 24.8442 36.8379 24.5337C37.0137 24.2231 37.1016 23.8481 37.1016 23.4087C37.1016 22.9106 37.0049 22.5063 36.8115 22.1958C36.6182 21.8853 36.3428 21.6567 35.9854 21.5103C35.6279 21.3579 35.2061 21.2817 34.7197 21.2817H33.4541Z" fill="white"/>
</svg>
